<svg width="22" height="26" viewBox="0 0 22 26" fill="none" xmlns="http://www.w3.org/2000/svg">
<path d="M5.66835 25.5133C5.15573 25.1723 4.70141 24.7509 4.32285 24.2653C3.90643 23.7641 3.52061 23.2383 3.16747 22.6907C2.33879 21.4767 1.68891 20.1498 1.23779 18.7509C0.695848 17.1259 0.433411 15.5683 0.433411 14.0449C0.433411 12.3435 0.801473 10.8583 1.52135 9.61025C2.05498 8.6348 2.83956 7.81965 3.79391 7.24913C4.71879 6.67467 5.78148 6.36029 6.87003 6.33913C7.2511 6.33913 7.66141 6.39438 8.09691 6.5C8.40972 6.58857 8.79078 6.72832 9.25635 6.90219C9.84866 7.1305 10.1745 7.27025 10.285 7.30438C10.6319 7.43113 10.9236 7.48638 11.1527 7.48638C11.3266 7.48638 11.572 7.43113 11.8507 7.34663C12.0075 7.29138 12.3032 7.19388 12.7265 7.01269C13.1458 6.85994 13.4757 6.72913 13.7381 6.63163C14.1403 6.513 14.5295 6.40332 14.8764 6.34807C15.2877 6.28322 15.7051 6.26605 16.1203 6.29688C16.8399 6.34391 17.5487 6.49639 18.2239 6.74944C19.3281 7.19388 20.221 7.88775 20.8857 8.87413C20.6047 9.04727 20.3411 9.24698 20.0983 9.4705C19.5699 9.93897 19.1198 10.4889 18.765 11.0996C18.3013 11.9341 18.0609 12.8741 18.0671 13.8288C18.0842 15.0012 18.3848 16.0339 18.9771 16.9268C19.4126 17.5886 19.9785 18.1545 20.6403 18.59C20.9791 18.8183 21.2708 18.9751 21.5503 19.0808C21.4195 19.487 21.2797 19.8803 21.1148 20.2703C20.7407 21.1448 20.2873 21.9833 19.7603 22.7752C19.2907 23.4569 18.9227 23.9647 18.6432 24.3027C18.2077 24.8186 17.7884 25.2127 17.3651 25.4873C16.8995 25.7961 16.3495 25.961 15.7905 25.961C15.4119 25.9755 15.0334 25.9297 14.6692 25.8253C14.3564 25.7197 14.0468 25.6051 13.7422 25.4743C13.4254 25.3288 13.0988 25.2058 12.7647 25.1063C11.939 24.8942 11.0732 24.8928 10.2468 25.1022C9.90797 25.1997 9.58216 25.3134 9.26041 25.4532C8.80785 25.6433 8.50722 25.7709 8.33335 25.8253C7.98641 25.9269 7.62647 25.9903 7.26247 26.0114C6.69941 26.0114 6.17453 25.8505 5.65453 25.5247L5.66835 25.5133ZM13.0946 5.51363C12.3585 5.88169 11.6557 6.0385 10.9577 5.98732C10.848 5.2845 10.9577 4.56544 11.2494 3.77813C11.4977 3.11112 11.8647 2.49453 12.3325 1.95813C12.8265 1.39346 13.4259 0.930622 14.0972 0.595566C14.8122 0.227504 15.4939 0.0284413 16.1455 -0.000808716C16.23 0.735316 16.1455 1.45925 15.875 2.24169C15.6246 2.93336 15.2583 3.57738 14.7919 4.14619C14.3158 4.71163 13.7316 5.17627 13.0735 5.51282L13.0946 5.51363Z" fill="black"/>
</svg>
